<svg id="Layer_1" data-name="Layer 1" xmlns="http://www.w3.org/2000/svg" viewBox="0 0 704.26 255.86"><defs><style>.cls-1{fill:#fff;}.cls-2{fill:#416ab3;}</style></defs><path class="cls-1" d="M-85.75,66.68l-7.42-13.41Q-95,49.91-96.9,46.53c-1.63-2.79-3.3-5.57-5-8.35-5.95-9.92-12.1-20.17-16.85-31-9.88-22.46-10.45-40.53-1.75-55.22,7.61-12.86,21.68-21.82,38.61-24.6,9.65-1.59,19.48-1.52,29-1.45,2.41,0,4.8,0,7.19,0l33.62-.12q27-.09,54.05-.22h1.13l1,.59a44.73,44.73,0,0,1,7.47,5.88C66.89-53.2,73.59-30.6,68.23-11.7c-2,7-5.72,13.05-9,18.4L58,8.6l-4.54,0Q39.3,8.46,25.08,8.38h-.66c-11.76-.06-27.23-.12-42.64-.12-6.12,0-12.31,0-18.42,0h-.86c-8.89.06-17.29.11-25.06,3.71-14.21,6.61-22.82,21.46-23,39.72ZM-58.66-66.2a135.17,135.17,0,0,0-21.92,1.38c-14.61,2.4-26.68,10-33.09,20.82-7.31,12.35-6.6,28.05,2.19,48,4.54,10.36,10.56,20.39,16.39,30.09l3,5c3.35-15.57,12.66-27.95,26.22-34.25C-56.56.52-46.9.46-37.55.4h.83c6.16,0,12.38,0,18.51,0,15.42,0,30.9.06,42.67.12h.67Q39.35.56,53.56.65h.09c2.79-4.57,5.51-9.31,7-14.51h0C65.22-30,59.36-49.47,46.07-62.23a38.65,38.65,0,0,0-5.22-4.25q-26.43.14-52.88.21l-33.62.13c-2.41,0-4.84,0-7.27,0C-54.82-66.18-56.74-66.2-58.66-66.2Z" transform="translate(126.59 74.72)"/><path class="cls-1" d="M56,117.3a61.72,61.72,0,0,1-12.28-1.21,53.71,53.71,0,0,1-24.08-11.9C13.26,98.72,9,91.93,5.17,85.44L4,83.42,15.83,63.59q11.35-19,22.73-37.95Q44.33,16,50.14,6.37C50.85,5.2,51.57,4,52.3,2.85l.18-.3C55.66-2.6,59-7.94,60.63-13.86,65.22-30,59.36-49.47,46.07-62.23a36.81,36.81,0,0,0-6.14-4.84L28.2-74.32,42-74.39c16.15-.08,30.28-.17,43.19-.27l3.35,0c13.28-.12,28.31-.25,40.26,6.39C140-62.06,150.14-49,153.35-36.47c5,19.32-4.74,38.23-15.11,56h0q-10.47,17.9-20.94,35.78l-30,51.2L87,107l-.52.48C78.08,114.75,66.43,117.3,56,117.3ZM13.17,83.44c3.18,5.28,6.77,10.6,11.61,14.75a45.72,45.72,0,0,0,20.53,10.16c11.12,2.28,26.3,1.14,35.54-6.46q14.82-25.32,29.63-50.63Q121,33.38,131.42,15.49h0c9.54-16.3,18.5-33.58,14.28-50C143-44.9,134.31-56.2,125-61.39c-10.13-5.63-24.06-5.5-36.36-5.4l-3.37,0c-9.91.08-20.56.15-32.29.22C67.29-51.81,73.43-30,68.23-11.7c-2,7-5.72,13.05-9,18.4L59,7c-.7,1.15-1.41,2.3-2.11,3.46q-5.8,9.63-11.57,19.25-11.39,19-22.73,38Z" transform="translate(126.59 74.72)"/><path class="cls-1" d="M13.37,181.14a46.5,46.5,0,0,1-23-6.22c-15.91-9-26.2-24.27-35.38-39.15-16-26-32.16-53.64-48-82.17l-.51-.91v-1c.25-21.38,10.56-38.87,27.6-46.79C-56.56.52-46.9.46-37.55.4l3.1,0,1.15,2c.11.18.22.36.32.55l.15.27c5.12,9.07,10.42,18.43,16.24,28.64l8,14.06C-3.06,55.57,2.66,65.62,8.57,75.6c.66,1.12,1.31,2.24,2,3.36L12,81.44c3.48,5.9,7.34,12.07,12.8,16.75a45.72,45.72,0,0,0,20.53,10.16c11.31,2.32,26.83,1.1,36-6.86L99.14,86,87.33,106.45,84.07,112c-2.31,3.93-4.62,8.1-6.86,12.13-5,9-10.2,18.37-16.24,26.94a113.24,113.24,0,0,1-9.8,12.16C40.2,175,26.82,181.14,13.37,181.14ZM-85.56,50.7C-70,78.79-54.06,106-38.28,131.62-29.65,145.63-20,160-5.74,168c17.08,9.65,36.2,5.84,51.14-10.17a103.25,103.25,0,0,0,9.11-11.32c5.8-8.22,10.88-17.37,15.79-26.22,1-1.87,2.1-3.77,3.17-5.67-10.13,3.34-21.4,3.15-29.75,1.43a53.71,53.71,0,0,1-24.08-11.9C13.26,98.72,9,91.93,5.17,85.44c-.5-.84-1-1.67-1.47-2.51L1.76,79.62c-5.93-10-11.67-20.11-17.22-29.86l-8-14.06C-29,26-34.1,17-39,8.31c-8.34.06-16.24.3-23.57,3.7C-76.5,18.49-85,32.91-85.56,50.7Z" transform="translate(126.59 74.72)"/><path class="cls-1" d="M215.67-14.13H187.18V7.21h33.3v9.62H175.13V-52.52h45v9.72h-33v19.15h28.49Z" transform="translate(126.59 74.72)"/><path class="cls-1" d="M254.15-27.46l14.58-25.06h13.91l-21,34.39,21.43,35H269.06L254.15-8.6l-15,25.43h-14l21.49-35-21-34.39h13.91Z" transform="translate(126.59 74.72)"/><path class="cls-1" d="M304.07-8.89V16.83H292V-52.52h26.53q11.63,0,18.46,6.06t6.84,16q0,10.2-6.7,15.88T318.41-8.89Zm0-9.71h14.48q6.43,0,9.82-3t3.38-8.74a12,12,0,0,0-3.43-9q-3.44-3.36-9.43-3.45H304.07Z" transform="translate(126.59 74.72)"/><path class="cls-1" d="M366.42,7.21H397.9v9.62H354.37V-52.52h12.05Z" transform="translate(126.59 74.72)"/><path class="cls-1" d="M459.45-16a42.51,42.51,0,0,1-3.53,17.88,26.71,26.71,0,0,1-10.07,11.82,27.8,27.8,0,0,1-15.08,4.12,27.85,27.85,0,0,1-15-4.12A27,27,0,0,1,405.55,1.92a41.11,41.11,0,0,1-3.64-17.57v-3.91a42.17,42.17,0,0,1,3.59-17.91,27.07,27.07,0,0,1,10.15-11.88,27.57,27.57,0,0,1,15-4.12,27.87,27.87,0,0,1,15,4.07,26.75,26.75,0,0,1,10.13,11.72,42.27,42.27,0,0,1,3.62,17.79Zm-12.06-3.62q0-11.54-4.35-17.67a14.26,14.26,0,0,0-12.36-6.15,14.22,14.22,0,0,0-12.22,6.12Q414.05-31.23,414-20v4q0,11.43,4.45,17.67a14.34,14.34,0,0,0,12.36,6.24q8,0,12.31-6.1T447.39-16Z" transform="translate(126.59 74.72)"/><path class="cls-1" d="M496.93-9.84H483.5V16.83H471.45V-52.52h24.39q12,0,18.52,5.39t6.53,15.59a19.5,19.5,0,0,1-3.36,11.65,21.44,21.44,0,0,1-9.36,7.23l15.58,28.88v.61H510.84ZM483.5-19.56h12.38q6.11,0,9.53-3.07A10.71,10.71,0,0,0,508.84-31q0-5.57-3.17-8.62t-9.45-3.14H483.5Z" transform="translate(126.59 74.72)"/><path class="cls-1" d="M572.86-14.13H544.37V7.21h33.3v9.62H532.32V-52.52h45v9.72h-33v19.15h28.49Z" transform="translate(126.59 74.72)"/><path class="cls-2" d="M170.13,158.27V40.37h42.35q22.76,0,34.61,8.34T259,72.93a28.06,28.06,0,0,1-4.21,15.62,24.55,24.55,0,0,1-12.39,9.56q9.22,2.43,14.17,9.07t4.94,16.19q0,17.32-11,26T218,158.27Zm28.42-68.74h14.82q9.31-.09,13.28-3.42t4-9.82q0-7.47-4.29-10.76t-13.84-3.29H198.55Zm0,18.62v28.26h18.63q7.68,0,11.82-3.52t4.13-9.92q0-14.75-14.66-14.82Z" transform="translate(126.59 74.72)"/><path class="cls-2" d="M305.52,136.41H355v21.86H277.1V40.37h28.42Z" transform="translate(126.59 74.72)"/><path class="cls-2" d="M461.63,101.75q0,17.25-6.39,30.53a47.39,47.39,0,0,1-18.18,20.45,50.7,50.7,0,0,1-26.85,7.16A51.4,51.4,0,0,1,383.49,153a47.22,47.22,0,0,1-18.17-19.8q-6.52-12.87-6.85-29.56V97q0-17.32,6.36-30.56A47.19,47.19,0,0,1,383.05,46a51,51,0,0,1,27-7.21,50.45,50.45,0,0,1,26.72,7.13A48,48,0,0,1,455,66.16q6.53,13.17,6.6,30.17Zm-28.9-4.94q0-17.57-5.87-26.68A18.85,18.85,0,0,0,410.05,61q-21.37,0-22.59,32.07l-.08,8.66q0,17.32,5.75,26.64t17.08,9.31a18.55,18.55,0,0,0,16.6-9.15q5.83-9.15,5.92-26.31Z" transform="translate(126.59 74.72)"/><path class="cls-2" d="M572.81,143.7q-6.55,7.29-19.19,11.74a82.73,82.73,0,0,1-27.69,4.45q-23.16,0-37-14.17t-14.81-39.43L474,96.08q0-17.4,6.16-30.4a45.64,45.64,0,0,1,17.61-20q11.46-7,26.52-7,22,0,34.21,10.09t14.21,30.08H545.36q-1.46-9.89-6.31-14.09t-13.77-4.21a18.55,18.55,0,0,0-16.52,9.07q-5.82,9.06-5.91,25.91v7.12q0,17.65,6,26.52t19,8.87q11.1,0,16.52-4.94v-18.3H524.63V95.27h48.18Z" transform="translate(126.59 74.72)"/></svg>